<svg width="20" height="18" viewBox="0 0 20 18" fill="none" xmlns="http://www.w3.org/2000/svg">
<path d="M17.8319 13.11C16.165 15.0372 16.9987 16.6661 17.585 17.4828C17.8319 17.7778 17.5 17.7778 17.3344 17.7778C16.6533 17.6678 16.0054 17.4333 15.4317 17.0891C14.8579 16.7449 14.3708 16.2986 14.0013 15.7783C13.8356 15.7028 13.7506 15.6311 13.5844 15.7028C12.415 16.0011 11.25 16.2206 10 16.1489C4.49812 16.1489 0 12.5928 0 8.14833C0 3.70389 4.49812 0 10 0C15.5019 0 20 3.62833 20 8.14833C20 10 19.1669 11.7039 17.8319 13.11ZM10 10.37L12.6656 11.9989C12.7196 12.0276 12.7816 12.0421 12.8444 12.0408C12.9073 12.0396 12.9685 12.0225 13.0209 11.9917C13.0734 11.9609 13.115 11.9175 13.1409 11.8666C13.1668 11.8157 13.1761 11.7593 13.1675 11.7039L12.1681 8.88833L14.7488 7.11222C14.7771 7.07458 14.7954 7.03169 14.8023 6.9868C14.8092 6.94192 14.8045 6.89622 14.7885 6.85321C14.7726 6.81019 14.7458 6.77097 14.7102 6.73855C14.6746 6.70613 14.6311 6.68135 14.5831 6.66611H11.335L10.2506 3.85056C10.219 3.81928 10.1803 3.79426 10.137 3.77714C10.0938 3.76002 10.047 3.75117 9.99969 3.75117C9.95236 3.75117 9.90556 3.76002 9.86233 3.77714C9.8191 3.79426 9.7804 3.81928 9.74875 3.85056L8.66438 6.66611H5.33125C5.27439 6.68446 5.22423 6.71626 5.18619 6.75807C5.14815 6.79989 5.12366 6.85013 5.11537 6.9034C5.10707 6.95667 5.11529 7.01094 5.13912 7.06036C5.16295 7.10979 5.20151 7.1525 5.25063 7.18389L7.75063 8.96389L6.9175 11.7039C6.91616 11.7498 6.92682 11.7953 6.94864 11.8369C6.97047 11.8786 7.00286 11.9151 7.04327 11.9437C7.08368 11.9723 7.131 11.9922 7.18151 12.0017C7.23203 12.0113 7.28436 12.0103 7.33437 11.9989L10 10.37Z" fill="#DADADA"/>
</svg>
