<svg width="20" height="18" viewBox="0 0 20 18" fill="none" xmlns="http://www.w3.org/2000/svg">
<path d="M19.1976 0C19.1026 0 19.0051 0.0155537 18.9076 0.0511048L4.49944 5.19713H0.39995C0.179978 5.19713 0 5.36156 0 5.56598V12.2096C0 12.414 0.179978 12.5784 0.39995 12.5784H2.93963C2.84714 12.8362 2.79965 13.1095 2.79965 13.3872C2.79965 14.8515 4.14448 16.0425 5.79928 16.0425C7.1841 16.0425 8.35146 15.207 8.69641 14.0783L18.9101 17.7267C19.0076 17.76 19.1051 17.7778 19.2001 17.7778C19.6225 17.7778 20 17.4623 20 17.0401V0.737686C19.9975 0.315516 19.6225 0 19.1976 0ZM5.79928 14.4493C5.13686 14.4493 4.59943 13.9738 4.59943 13.3872C4.59943 13.1384 4.69691 12.9006 4.87439 12.7118L6.99663 13.4694C6.94663 14.016 6.4292 14.4493 5.79928 14.4493Z" fill="#DADADA"/>
</svg>
