<svg width="20" height="16" viewBox="0 0 20 16" fill="none" xmlns="http://www.w3.org/2000/svg">
<path d="M14 2.66667H16V15.1111H4V2.66667H6V1.77778C6 1.30628 6.21071 0.854098 6.58579 0.5207C6.96086 0.187301 7.46957 0 8 0H12C12.5304 0 13.0391 0.187301 13.4142 0.5207C13.7893 0.854098 14 1.30628 14 1.77778V2.66667ZM17 2.66667H18C18.5304 2.66667 19.0391 2.85397 19.4142 3.18737C19.7893 3.52077 20 3.97295 20 4.44445V13.3333C20 13.8048 19.7893 14.257 19.4142 14.5904C19.0391 14.9238 18.5304 15.1111 18 15.1111H17V2.66667ZM3 2.66667V15.1111H2C1.46957 15.1111 0.960859 14.9238 0.585786 14.5904C0.210714 14.257 0 13.8048 0 13.3333V4.44445C0 3.46667 0.9 2.66667 2 2.66667H3ZM8 1.77778V2.66667H12V1.77778H8Z" fill="#DB0080"/>
</svg>
